<svg width="170" height="170" viewBox="0 0 170 170" fill="none" xmlns="http://www.w3.org/2000/svg">
<rect width="170" height="170" rx="85" fill="#F7D600"/>
<path d="M81.5 76.1909H71.3539V110.977C68.455 120.399 56.8595 110.977 56.8595 110.977L52.5112 115.326C61.7876 129.82 81.5 121.123 81.5 110.977V76.1909Z" fill="black" stroke="black" stroke-width="1.44944"/>
<path d="M123.611 81.7827L119.253 88.5564C113.442 83.5388 96.0092 79.5284 101.82 91.5669C123.611 99.0932 119.253 96.8353 123.611 101.351C126.516 104.362 126.295 111.888 123.611 115.651C113.732 129.5 96.7355 121.421 89.4719 115.651L96.0092 108.125C109.084 122.425 130.148 108.125 98.9146 101.351C95.0407 99.595 88.7456 93.2227 94.5564 81.7827C100.367 70.3427 116.347 77.016 123.611 81.7827Z" fill="black"/>
<circle cx="30.0449" cy="104.455" r="13.0449" fill="#22171D"/>
<circle cx="30.0449" cy="104.455" r="8.69663" fill="#22171D"/>
<rect x="25.6967" y="24.7358" width="120.303" height="7.24719" fill="#1F1C00"/>
<rect x="25.6967" y="84.1628" width="52.1798" height="7.24719" transform="rotate(-90 25.6967 84.1628)" fill="#1F1C00"/>
<rect x="138.753" y="145.039" width="120.303" height="7.24719" transform="rotate(-90 138.753 145.039)" fill="#1F1C00"/>
<rect x="25.6967" y="137.792" width="120.303" height="7.24719" fill="#1F1C00"/>
<rect x="25.6967" y="137.792" width="13.0449" height="8.69663" transform="rotate(-90 25.6967 137.792)" fill="#1F1C00"/>
</svg>
